<?xml version="1.0" encoding="iso-8859-1"?>
<!-- Generator: Adobe Illustrator 19.0.0, SVG Export Plug-In . SVG Version: 6.00 Build 0)  -->
<svg version="1.1" id="Layer_1" xmlns="http://www.w3.org/2000/svg" xmlns:xlink="http://www.w3.org/1999/xlink" x="0px" y="0px"
	 viewBox="0 0 488.8 488.8" style="enable-background:new 0 0 488.8 488.8;" xml:space="preserve">
<path style="fill:#698596;" d="M416.4,0h-344c-40,0-72,32.8-72,72v343.2c0,40,32.8,72,72,72h343.2c40,0,72-32.8,72-72V72
	C488.4,32.8,455.6,0,416.4,0z M440.4,416c0,13.6-11.2,24-24,24h-344c-13.6,0-24-11.2-24-24V72c0-13.6,11.2-24,24-24h343.2
	c13.6,0,24,11.2,24,24v344H440.4z"/>
<g>
	<path style="fill:#5A7182;" d="M72.4,488h172l-172-0.8c-13.6,0-24-11.2-24-24l0.8-172V72c0-13.6,11.2-24,24-24h172L74,47.2
		c-40,0-72.8,32-72.8,72l-0.8,172V416C0.4,455.2,33.2,488,72.4,488z"/>
	<path style="fill:#5A7182;" d="M487.6,424.8l0.8-132.8V111.2c-4.8-32.8-32-58.4-64.8-61.6c9.6,3.2,16.8,12,16.8,23.2V116
		c0.8,2.4,0.8,4,0.8,6.4L440.4,292v124c0,1.6,0,4-0.8,5.6v44c0,10.4-7.2,20-16.8,23.2C456.4,484.8,483.6,458.4,487.6,424.8z"/>
</g>
<path style="fill:#829BA8;" d="M451.6,127.2c0,7.2-5.6,12-12,12H50c-7.2,0-12-5.6-12-12l0,0c0-7.2,5.6-12,12-12h388.8
	C446,115.2,451.6,120.8,451.6,127.2L451.6,127.2z"/>
<path style="fill:#99B5C1;" d="M438.8,115.2H50c-4.8,0-8.8,3.2-11.2,7.2c1.6,4,6.4,7.2,11.2,7.2h388.8c4.8,0,8.8-3.2,11.2-7.2
	C448.4,117.6,444.4,115.2,438.8,115.2z"/>
<ellipse style="fill:#C92B00;" cx="110.8" cy="127.2" rx="23.2" ry="38.4"/>
<path style="fill:#E23B14;" d="M111.6,127.2c0,20.8,12.8,38.4-0.8,38.4s-23.2-16.8-23.2-38.4c0-20.8,10.4-38.4,23.2-38.4
	S111.6,106.4,111.6,127.2z"/>
<ellipse style="fill:#68828E;" cx="130" cy="127.2" rx="6.4" ry="13.6"/>
<ellipse style="fill:#C92B00;" cx="174" cy="127.2" rx="23.2" ry="38.4"/>
<path style="fill:#E23B14;" d="M174.8,127.2c0,20.8,12.8,38.4-0.8,38.4s-23.2-16.8-23.2-38.4c0-20.8,10.4-38.4,23.2-38.4
	S174.8,106.4,174.8,127.2z"/>
<ellipse style="fill:#68828E;" cx="194" cy="127.2" rx="6.4" ry="13.6"/>
<ellipse style="fill:#C92B00;" cx="238" cy="127.2" rx="23.2" ry="38.4"/>
<path style="fill:#E23B14;" d="M238.8,127.2c0,20.8,12.8,38.4-0.8,38.4s-23.2-16.8-23.2-38.4c0-20.8,10.4-38.4,23.2-38.4
	S238.8,106.4,238.8,127.2z"/>
<ellipse style="fill:#68828E;" cx="257.2" cy="127.2" rx="6.4" ry="13.6"/>
<ellipse style="fill:#C92B00;" cx="369.2" cy="127.2" rx="23.2" ry="38.4"/>
<path style="fill:#E23B14;" d="M370,127.2c0,20.8,12.8,38.4-0.8,38.4S346,148.8,346,127.2c0-20.8,10.4-38.4,23.2-38.4
	C382,88.8,370,106.4,370,127.2z"/>
<ellipse style="fill:#68828E;" cx="388.4" cy="127.2" rx="6.4" ry="13.6"/>
<path style="fill:#829BA8;" d="M451.6,247.2c0,7.2-5.6,12-12,12H50c-7.2,0-12-5.6-12-12l0,0c0-7.2,5.6-12,12-12h388.8
	C446,234.4,451.6,240,451.6,247.2L451.6,247.2z"/>
<path style="fill:#99B5C1;" d="M438.8,234.4H50c-4.8,0-8.8,3.2-11.2,7.2c1.6,4,6.4,7.2,11.2,7.2h388.8c4.8,0,8.8-3.2,11.2-7.2
	C448.4,237.6,444.4,234.4,438.8,234.4z"/>
<ellipse style="fill:#F4A414;" cx="110.8" cy="247.2" rx="23.2" ry="38.4"/>
<path style="fill:#F7C011;" d="M111.6,247.2c0,20.8,12.8,38.4-0.8,38.4s-23.2-16.8-23.2-38.4s10.4-38.4,23.2-38.4
	S111.6,225.6,111.6,247.2z"/>
<ellipse style="fill:#68828E;" cx="130" cy="247.2" rx="6.4" ry="13.6"/>
<ellipse style="fill:#F4A414;" cx="199.6" cy="247.2" rx="23.2" ry="38.4"/>
<path style="fill:#F7C011;" d="M199.6,247.2c0,20.8,12.8,38.4-0.8,38.4c-12.8,0-23.2-16.8-23.2-38.4s10.4-38.4,23.2-38.4
	C212.4,208.8,199.6,225.6,199.6,247.2z"/>
<ellipse style="fill:#68828E;" cx="218.8" cy="247.2" rx="6.4" ry="13.6"/>
<ellipse style="fill:#F4A414;" cx="307.6" cy="247.2" rx="23.2" ry="38.4"/>
<path style="fill:#F7C011;" d="M308.4,247.2c0,20.8,12.8,38.4-0.8,38.4s-23.2-17.6-23.2-38.4s10.4-38.4,23.2-38.4
	C320.4,208.8,308.4,225.6,308.4,247.2z"/>
<ellipse style="fill:#68828E;" cx="326.8" cy="247.2" rx="6.4" ry="13.6"/>
<ellipse style="fill:#F4A414;" cx="369.2" cy="247.2" rx="23.2" ry="38.4"/>
<path style="fill:#F7C011;" d="M370,247.2c0,20.8,12.8,38.4-0.8,38.4S346,268.8,346,247.2s10.4-38.4,23.2-38.4
	C382,208.8,370,225.6,370,247.2z"/>
<ellipse style="fill:#68828E;" cx="388.4" cy="247.2" rx="6.4" ry="13.6"/>
<path style="fill:#829BA8;" d="M451.6,366.4c0,7.2-5.6,12-12,12H50c-7.2,0-12-5.6-12-12l0,0c0-7.2,5.6-12,12-12h388.8
	C446,353.6,451.6,359.2,451.6,366.4L451.6,366.4z"/>
<path style="fill:#99B5C1;" d="M438.8,353.6H50c-4.8,0-8.8,3.2-11.2,7.2c1.6,4,6.4,7.2,11.2,7.2h388.8c4.8,0,8.8-3.2,11.2-7.2
	C448.4,356.8,444.4,353.6,438.8,353.6z"/>
<ellipse style="fill:#0CC69A;" cx="110.8" cy="366.4" rx="23.2" ry="38.4"/>
<path style="fill:#12DB55;" d="M111.6,366.4c0,20.8,12.8,38.4-0.8,38.4S87.6,388,87.6,366.4c0-20.8,10.4-38.4,23.2-38.4
	S111.6,345.6,111.6,366.4z"/>
<path style="fill:#68828E;" d="M136.4,366.4c0,8-3.2,13.6-6.4,13.6c-4,0-6.4-6.4-6.4-13.6c0-8,3.2-13.6,6.4-13.6
	C134,352,136.4,358.4,136.4,366.4z"/>
<ellipse style="fill:#0CC69A;" cx="237.2" cy="366.4" rx="23.2" ry="38.4"/>
<path style="fill:#12DB55;" d="M238,366.4c0,20.8,12.8,38.4-0.8,38.4S214,388,214,366.4c0-20.8,10.4-38.4,23.2-38.4
	S238,345.6,238,366.4z"/>
<path style="fill:#68828E;" d="M262.8,366.4c0,8-3.2,13.6-6.4,13.6c-4,0-6.4-6.4-6.4-13.6c0-8,3.2-13.6,6.4-13.6
	C260.4,352,262.8,358.4,262.8,366.4z"/>
<ellipse style="fill:#0CC69A;" cx="336.4" cy="366.4" rx="23.2" ry="38.4"/>
<path style="fill:#12DB55;" d="M337.2,366.4c0,20.8,12.8,38.4-0.8,38.4s-23.2-16.8-23.2-38.4c0-20.8,10.4-38.4,23.2-38.4
	C349.2,328,337.2,345.6,337.2,366.4z"/>
<path style="fill:#68828E;" d="M362,366.4c0,8-3.2,13.6-6.4,13.6c-4,0-6.4-6.4-6.4-13.6c0-8,3.2-13.6,6.4-13.6
	C359.6,352,362,358.4,362,366.4z"/>
<ellipse style="fill:#0CC69A;" cx="397.2" cy="366.4" rx="23.2" ry="38.4"/>
<path style="fill:#12DB55;" d="M398,366.4c0,20.8,12.8,38.4-0.8,38.4S374,388,374,366.4c0-20.8,10.4-38.4,23.2-38.4
	C410,328,398,345.6,398,366.4z"/>
<path style="fill:#68828E;" d="M423.6,366.4c0,8-3.2,13.6-6.4,13.6c-4,0-6.4-6.4-6.4-13.6c0-8,3.2-13.6,6.4-13.6
	C420.4,352,423.6,358.4,423.6,366.4z"/>
<g>
</g>
<g>
</g>
<g>
</g>
<g>
</g>
<g>
</g>
<g>
</g>
<g>
</g>
<g>
</g>
<g>
</g>
<g>
</g>
<g>
</g>
<g>
</g>
<g>
</g>
<g>
</g>
<g>
</g>
</svg>
